<svg xmlns="http://www.w3.org/2000/svg" xmlns:svg="http://www.w3.org/2000/svg" id="svg2" width="451.429" height="451.429" version="1.1"><metadata id="metadata7"/><g id="layer1" transform="translate(-2887.5916,-192.36151)"><path id="path3866" d="M 1338.5714,519.50507 A 192.85715,192.85715 0 0 1 1145.7142,712.36221 192.85715,192.85715 0 0 1 952.85709,519.50507 192.85715,192.85715 0 0 1 1145.7142,326.64792 192.85715,192.85715 0 0 1 1338.5714,519.50507 Z" transform="matrix(1.1703715,0,0,1.1703715,1772.3948,-189.9379)" style="fill:#fc3;fill-opacity:1;fill-rule:nonzero;stroke:none"/><g transform="matrix(-3.1435529,0,0,-3.1435529,10926.161,-138.49162)" style="font-style:normal;font-variant:normal;font-weight:700;font-stretch:normal;font-size:144px;line-height:125%;font-family:'College Slab';-inkscape-font-specification:'College Slab Bold';letter-spacing:0;word-spacing:0;fill:#fff;fill-opacity:1;stroke:none" id="text3890"><path style="font-family:Lato;-inkscape-font-specification:'Lato Bold';fill:#fff" id="path3089" d="m 2494.2863,-197.59079 v 73.872 h -17.856 v -73.872 h 17.856"/><circle style="fill:#fff;fill-opacity:1;fill-rule:nonzero;stroke:none" id="path3085" cx="139.737" cy="101.287" r="35.068" transform="matrix(0.3181114,0,0,0.3181114,2440.9065,-251.44719)"/></g></g></svg>